# xmcd
#
# Track frame offsets:
#	150
#	14061
#	28920
#	43246
#	56227
#	69012
#	85223
#	96786
#	111252
#	126842
#	142674
#	156551
#	168724
#	180734
#	193370
#	203745
#
# Disc length: 2909 seconds
#
# Revision: 1
# Processed by: cddbd v1.5.1PL0 Copyright (c) Steve Scherf et al.
# Submitted via: audiograbber 1.80
#
DISCID=ee0b5b10
DTITLE=Marianne and Michael - Zillertaler Hochzeitsmarsch
DYEAR=1900
DGENRE=
TTITLE0=Wann fangt denn endlich d'Musi an
TTITLE1=Zillertaler Hochzeitsmarsch
TTITLE2=Sag mir einfach, dass d'mi gern hast
TTITLE3=Die lustigen Holzhackerbuam
TTITLE4=Patrona Bavariae
TTITLE5=Kufsteiner Lied
TTITLE6=Treue Bergvagabunden
TTITLE7=Erzherzog Johann Jodler
TTITLE8=Über Böhmen lacht die Sonne
TTITLE9=Rosamunde
TTITLE10=Die kloane Tür zum Paradies
TTITLE11=Als wär's das allererste Mal
TTITLE12=Lieder die von Herzen kommen
TTITLE13=Wir bringen euch fröhliche Lieder
TTITLE14=Du, du liegst mir am Herzen
TTITLE15=Schützenliesl
EXTD=
EXTT0=
EXTT1=
EXTT2=
EXTT3=
EXTT4=
EXTT5=
EXTT6=
EXTT7=
EXTT8=
EXTT9=
EXTT10=
EXTT11=
EXTT12=
EXTT13=
EXTT14=
EXTT15=
PLAYORDER=
